<svg xmlns="http://www.w3.org/2000/svg" viewBox="0 0 24 24" fill="none" stroke="currentColor" stroke-width="1.5">
  <path stroke-linecap="round" stroke-linejoin="round" d="M9.75 3.104v5.714a2.25 2.25 0 01-.659 1.591L5 14.5M9.75 3.104c-.251.023-.501.05-.75.082m.75-.082a24.301 24.301 0 014.5 0m0 0v5.714c0 .597.237 1.17.659 1.591l3.5 3.5m-4.159-9.182c.251-.023.501-.05.75-.082m-4.5 0c.375 0 .75.012 1.125.037m3.375 0c.375-.025.75-.037 1.125-.037m-4.5 0c.375 0 .75.012 1.125.037M12 19.5V21m3.75-18v1.5M19.5 8.25h-1.5M8.25 3.75h7.5m-3.75 15h.008v.008H12v-.008z" />
</svg>
