<svg xmlns="http://www.w3.org/2000/svg" viewBox="0 0 24 24" fill="currentColor">
  <path d="M12.525.02c1.31-.02 2.61-.01 3.91.02.08 1.53.63 3.09 1.75 4.17 1.12 1.11 2.7 1.62 4.24 1.79v4.03c-1.44-.05-2.89-.35-4.2-.97-.57-.26-1.1-.59-1.62-.93-.01 2.92.01 5.84-.02 8.75-.08 1.4-.54 2.79-1.35 3.94-1.31 1.92-3.58 3.17-5.91 3.21-2.43.05-4.85-.38-6.75-1.77-2.06-1.52-3.06-3.9-3.06-6.38 0-4.32 2.57-8.05 6.46-9.66.45-.19.92-.38 1.41-.51.02-3.36.01-6.72-.02-10.08zM7.25 15.55c.01.2.02.4.03.6.08 1.67.63 3.29 1.74 4.45 1.12 1.14 2.7 1.68 4.27 1.73v-4.04c-.99-.06-1.97-.34-2.82-.89-.48-.31-.92-.68-1.33-1.11-.01-2.52-.01-5.04.02-7.56.03-1.15.39-2.28.98-3.23.51-.81 1.2-1.46 2.04-1.92v-3.96c-.92.1-1.84.34-2.7.72-.57.25-1.1.57-1.6.93-.02 2.67-.01 5.34.02 8.01z" />
</svg>
