<svg xmlns="http://www.w3.org/2000/svg" viewBox="0 0 24 24" fill="currentColor">
  <path d="M20.317 4.369A19.791 19.791 0 0016.556 3c-.215.39-.463.917-.636 1.333a18.626 18.626 0 00-3.848 0A12.64 12.64 0 0011.436 3a19.736 19.736 0 00-3.762 1.385c-2.381 3.49-3.025 6.892-2.701 10.24a19.903 19.903 0 003.996 2.02c.33-.452.624-.934.873-1.442a12.815 12.815 0 001.696.136c.6.021 1.2-.02 1.794-.123.253.5.546.98.872 1.432a19.758 19.758 0 004.003-2.03c.332-3.42-.396-6.79-2.79-10.249zm-9.024 8.442c-.785 0-1.426-.721-1.426-1.61 0-.89.63-1.61 1.426-1.61.806 0 1.437.72 1.426 1.61 0 .889-.63 1.61-1.426 1.61zm5.418 0c-.785 0-1.426-.721-1.426-1.61 0-.89.63-1.61 1.426-1.61.806 0 1.437.72 1.426 1.61 0 .889-.62 1.61-1.426 1.61z" />
</svg>
