<svg xmlns="http://www.w3.org/2000/svg" viewBox="0 0 24 24" fill="currentColor">
  <path d="M11.944 0A12 12 0 000 12a12 12 0 0012 12 12 12 0 0012-12A12 12 0 0012 0zm5.043 7.924c-.234-.94-.83-1.21-1.42.21L11.79 12.2l-3.26-1.026c-1.154-.384-1.153-1.144.24-1.523l8.693-2.9c.9-.3 1.623.192 1.348 1.487l-1.9 8.54c-.23 1.053-1.002 1.3-1.802.82l-3.514-2.58-1.7 1.64c-.19.19-.35.35-.69.35-.46 0-.62-.16-.69-.77l.25-2.22 5.02-4.52c.46-.43-.1-.68-.69-.26l-6.3 3.97-3.34-1.04c-1.02-.31-1.05-.98.24-1.42l1.33-.45z" />
</svg>
